<svg width="178" height="32" viewBox="0 0 178 32" fill="none" xmlns="http://www.w3.org/2000/svg">
<g clip-path="url(#clip0_2_662)">
<path d="M5.33303 16.0009V5.33394H10.667V0H0V32H5.33303V21.333H21.333V16.0009H5.33303Z" fill="white"/>
<path d="M10.667 5.33392V10.667H26.6661V21.3339H21.333V26.667C27.2247 26.667 32 21.8916 32 16C32 10.1083 27.2247 5.33301 21.333 5.33301H10.667V5.33392Z" fill="white"/>
</g>
<path d="M55.984 24H52.624L45.016 12.504V24H41.656V7.224H45.016L52.624 18.744V7.224H55.984V24ZM69.1684 7.248V9.96H62.1844V14.256H67.5364V16.92H62.1844V24H58.8244V7.248H69.1684ZM83.287 12.432C83.287 13.328 83.071 14.168 82.639 14.952C82.223 15.736 81.559 16.368 80.647 16.848C79.751 17.328 78.615 17.568 77.239 17.568H74.431V24H71.071V7.248H77.239C78.535 7.248 79.639 7.472 80.551 7.92C81.463 8.368 82.143 8.984 82.591 9.768C83.055 10.552 83.287 11.44 83.287 12.432ZM77.095 14.856C78.023 14.856 78.711 14.648 79.159 14.232C79.607 13.8 79.831 13.2 79.831 12.432C79.831 10.8 78.919 9.984 77.095 9.984H74.431V14.856H77.095ZM84.3286 17.304C84.3286 15.96 84.5926 14.768 85.1206 13.728C85.6646 12.688 86.3926 11.888 87.3046 11.328C88.2326 10.768 89.2646 10.488 90.4006 10.488C91.3926 10.488 92.2566 10.688 92.9926 11.088C93.7446 11.488 94.3446 11.992 94.7926 12.6V10.704H98.1766V24H94.7926V22.056C94.3606 22.68 93.7606 23.2 92.9926 23.616C92.2406 24.016 91.3686 24.216 90.3766 24.216C89.2566 24.216 88.2326 23.928 87.3046 23.352C86.3926 22.776 85.6646 21.968 85.1206 20.928C84.5926 19.872 84.3286 18.664 84.3286 17.304ZM94.7926 17.352C94.7926 16.536 94.6326 15.84 94.3126 15.264C93.9926 14.672 93.5606 14.224 93.0166 13.92C92.4726 13.6 91.8886 13.44 91.2646 13.44C90.6406 13.44 90.0646 13.592 89.5366 13.896C89.0086 14.2 88.5766 14.648 88.2406 15.24C87.9206 15.816 87.7606 16.504 87.7606 17.304C87.7606 18.104 87.9206 18.808 88.2406 19.416C88.5766 20.008 89.0086 20.464 89.5366 20.784C90.0806 21.104 90.6566 21.264 91.2646 21.264C91.8886 21.264 92.4726 21.112 93.0166 20.808C93.5606 20.488 93.9926 20.04 94.3126 19.464C94.6326 18.872 94.7926 18.168 94.7926 17.352ZM102.682 9.12C102.09 9.12 101.594 8.936 101.194 8.568C100.81 8.184 100.618 7.712 100.618 7.152C100.618 6.592 100.81 6.128 101.194 5.76C101.594 5.376 102.09 5.184 102.682 5.184C103.274 5.184 103.762 5.376 104.146 5.76C104.546 6.128 104.746 6.592 104.746 7.152C104.746 7.712 104.546 8.184 104.146 8.568C103.762 8.936 103.274 9.12 102.682 9.12ZM104.338 10.704V24H100.978V10.704H104.338ZM112.266 24.216C111.178 24.216 110.202 24.024 109.338 23.64C108.474 23.24 107.786 22.704 107.274 22.032C106.778 21.36 106.506 20.616 106.458 19.8H109.842C109.906 20.312 110.154 20.736 110.586 21.072C111.034 21.408 111.586 21.576 112.242 21.576C112.882 21.576 113.378 21.448 113.73 21.192C114.098 20.936 114.282 20.608 114.282 20.208C114.282 19.776 114.058 19.456 113.61 19.248C113.178 19.024 112.482 18.784 111.522 18.528C110.53 18.288 109.714 18.04 109.074 17.784C108.45 17.528 107.906 17.136 107.442 16.608C106.994 16.08 106.77 15.368 106.77 14.472C106.77 13.736 106.978 13.064 107.394 12.456C107.826 11.848 108.434 11.368 109.218 11.016C110.018 10.664 110.954 10.488 112.026 10.488C113.61 10.488 114.874 10.888 115.818 11.688C116.762 12.472 117.282 13.536 117.378 14.88H114.162C114.114 14.352 113.89 13.936 113.49 13.632C113.106 13.312 112.586 13.152 111.93 13.152C111.322 13.152 110.85 13.264 110.514 13.488C110.194 13.712 110.034 14.024 110.034 14.424C110.034 14.872 110.258 15.216 110.706 15.456C111.154 15.68 111.85 15.912 112.794 16.152C113.754 16.392 114.546 16.64 115.17 16.896C115.794 17.152 116.33 17.552 116.778 18.096C117.242 18.624 117.482 19.328 117.498 20.208C117.498 20.976 117.282 21.664 116.85 22.272C116.434 22.88 115.826 23.36 115.026 23.712C114.242 24.048 113.322 24.216 112.266 24.216ZM118.912 17.304C118.912 15.96 119.176 14.768 119.704 13.728C120.248 12.688 120.976 11.888 121.888 11.328C122.816 10.768 123.848 10.488 124.984 10.488C125.976 10.488 126.84 10.688 127.576 11.088C128.328 11.488 128.928 11.992 129.376 12.6V10.704H132.76V24H129.376V22.056C128.944 22.68 128.344 23.2 127.576 23.616C126.824 24.016 125.952 24.216 124.96 24.216C123.84 24.216 122.816 23.928 121.888 23.352C120.976 22.776 120.248 21.968 119.704 20.928C119.176 19.872 118.912 18.664 118.912 17.304ZM129.376 17.352C129.376 16.536 129.216 15.84 128.896 15.264C128.576 14.672 128.144 14.224 127.6 13.92C127.056 13.6 126.472 13.44 125.848 13.44C125.224 13.44 124.648 13.592 124.12 13.896C123.592 14.2 123.16 14.648 122.824 15.24C122.504 15.816 122.344 16.504 122.344 17.304C122.344 18.104 122.504 18.808 122.824 19.416C123.16 20.008 123.592 20.464 124.12 20.784C124.664 21.104 125.24 21.264 125.848 21.264C126.472 21.264 127.056 21.112 127.6 20.808C128.144 20.488 128.576 20.04 128.896 19.464C129.216 18.872 129.376 18.168 129.376 17.352ZM142.93 10.512C144.514 10.512 145.794 11.016 146.77 12.024C147.746 13.016 148.234 14.408 148.234 16.2V24H144.874V16.656C144.874 15.6 144.61 14.792 144.082 14.232C143.554 13.656 142.834 13.368 141.922 13.368C140.994 13.368 140.258 13.656 139.714 14.232C139.186 14.792 138.922 15.6 138.922 16.656V24H135.562V10.704H138.922V12.36C139.37 11.784 139.938 11.336 140.626 11.016C141.33 10.68 142.098 10.512 142.93 10.512ZM156.853 24.216C155.573 24.216 154.421 23.936 153.397 23.376C152.373 22.8 151.565 21.992 150.973 20.952C150.397 19.912 150.109 18.712 150.109 17.352C150.109 15.992 150.405 14.792 150.997 13.752C151.605 12.712 152.429 11.912 153.469 11.352C154.509 10.776 155.669 10.488 156.949 10.488C158.229 10.488 159.389 10.776 160.429 11.352C161.469 11.912 162.285 12.712 162.877 13.752C163.485 14.792 163.789 15.992 163.789 17.352C163.789 18.712 163.477 19.912 162.853 20.952C162.245 21.992 161.413 22.8 160.357 23.376C159.317 23.936 158.149 24.216 156.853 24.216ZM156.853 21.288C157.461 21.288 158.029 21.144 158.557 20.856C159.101 20.552 159.533 20.104 159.853 19.512C160.173 18.92 160.333 18.2 160.333 17.352C160.333 16.088 159.997 15.12 159.325 14.448C158.669 13.76 157.861 13.416 156.901 13.416C155.941 13.416 155.133 13.76 154.477 14.448C153.837 15.12 153.517 16.088 153.517 17.352C153.517 18.616 153.829 19.592 154.453 20.28C155.093 20.952 155.893 21.288 156.853 21.288ZM170.862 24.216C169.774 24.216 168.798 24.024 167.934 23.64C167.07 23.24 166.382 22.704 165.87 22.032C165.374 21.36 165.102 20.616 165.054 19.8H168.438C168.502 20.312 168.75 20.736 169.182 21.072C169.63 21.408 170.182 21.576 170.838 21.576C171.478 21.576 171.974 21.448 172.326 21.192C172.694 20.936 172.878 20.608 172.878 20.208C172.878 19.776 172.654 19.456 172.206 19.248C171.774 19.024 171.078 18.784 170.118 18.528C169.126 18.288 168.31 18.04 167.67 17.784C167.046 17.528 166.502 17.136 166.038 16.608C165.59 16.08 165.366 15.368 165.366 14.472C165.366 13.736 165.574 13.064 165.99 12.456C166.422 11.848 167.03 11.368 167.814 11.016C168.614 10.664 169.55 10.488 170.622 10.488C172.206 10.488 173.47 10.888 174.414 11.688C175.358 12.472 175.878 13.536 175.974 14.88H172.758C172.71 14.352 172.486 13.936 172.086 13.632C171.702 13.312 171.182 13.152 170.526 13.152C169.918 13.152 169.446 13.264 169.11 13.488C168.79 13.712 168.63 14.024 168.63 14.424C168.63 14.872 168.854 15.216 169.302 15.456C169.75 15.68 170.446 15.912 171.39 16.152C172.35 16.392 173.142 16.64 173.766 16.896C174.39 17.152 174.926 17.552 175.374 18.096C175.838 18.624 176.078 19.328 176.094 20.208C176.094 20.976 175.878 21.664 175.446 22.272C175.03 22.88 174.422 23.36 173.622 23.712C172.838 24.048 171.918 24.216 170.862 24.216Z" fill="#F4F5F6"/>
<defs>
<clipPath id="clip0_2_662">
<rect width="32" height="32" fill="white"/>
</clipPath>
</defs>
</svg>
